<?xml version="1.0" encoding="utf-8"?>
<!-- Generator: Adobe Illustrator 17.1.0, SVG Export Plug-In . SVG Version: 6.00 Build 0)  -->
<!DOCTYPE svg PUBLIC "-//W3C//DTD SVG 1.1//EN" "http://www.w3.org/Graphics/SVG/1.1/DTD/svg11.dtd">
<svg version="1.1" xmlns="http://www.w3.org/2000/svg" xmlns:xlink="http://www.w3.org/1999/xlink" x="0px" y="0px"
	 viewBox="0 0 100 100" enable-background="new 0 0 100 100" xml:space="preserve">
<g id="Ebene_1">
	<g>
		<g>
			<g>
				<path fill="#CACACA" d="M32.4,36.5c0,6.4-5.1,11.5-11.5,11.5c-6.3,0-11.5-5.2-11.5-11.5c0-6.4,5.1-11.5,11.5-11.5
					C27.3,25,32.4,30.2,32.4,36.5z"/>
			</g>
			<path fill="#CACACA" d="M32.1,46.9c-2.8,3-6.8,4.9-11.2,4.9c-4.4,0-8.4-1.9-11.2-4.9C4.4,51.4,1,58.9,1,67.5
				c0,0,10.5,2.4,19.9,2.4s19.9-2.4,19.9-2.4C40.8,58.9,37.4,51.4,32.1,46.9z"/>
		</g>
		<g>
			<g>
				<path fill="#CACACA" d="M90.6,36.5c0,6.4-5.1,11.5-11.5,11.5c-6.3,0-11.5-5.2-11.5-11.5c0-6.4,5.1-11.5,11.5-11.5
					C85.4,25,90.6,30.2,90.6,36.5z"/>
			</g>
			<path fill="#CACACA" d="M90.3,46.9c-2.8,3-6.8,4.9-11.2,4.9c-4.4,0-8.4-1.9-11.2-4.9c-5.2,4.5-8.7,12-8.7,20.6
				c0,0,10.5,2.4,19.9,2.4S99,67.5,99,67.5C99,58.9,95.6,51.4,90.3,46.9z"/>
		</g>
		<g>
			<g>
				<path fill="#30ADE7" d="M61.5,41.6c0,6.4-5.1,11.5-11.5,11.5c-6.3,0-11.5-5.2-11.5-11.5c0-6.4,5.1-11.5,11.5-11.5
					C56.3,30.1,61.5,35.3,61.5,41.6z"/>
			</g>
			<path fill="#30ADE7" d="M61.2,52c-2.8,3-6.8,4.9-11.2,4.9c-4.4,0-8.4-1.9-11.2-4.9c-5.2,4.5-8.7,12-8.7,20.6
				c0,0,10.5,2.4,19.9,2.4s19.9-2.4,19.9-2.4C69.9,64.1,66.5,56.5,61.2,52z"/>
		</g>
	</g>
</g>
<g id="Ebene_2">
	<g id="Aufzählungszeichen_5_-_Nächst.">
	</g>
</g>
<g id="Ebene_4">
</g>
</svg>
