<?xml version="1.0" encoding="utf-8"?>
<!-- Generator: Adobe Illustrator 17.1.0, SVG Export Plug-In . SVG Version: 6.00 Build 0)  -->
<!DOCTYPE svg PUBLIC "-//W3C//DTD SVG 1.1//EN" "http://www.w3.org/Graphics/SVG/1.1/DTD/svg11.dtd">
<svg version="1.1" xmlns="http://www.w3.org/2000/svg" xmlns:xlink="http://www.w3.org/1999/xlink" x="0px" y="0px"
	 viewBox="0 0 100 100" enable-background="new 0 0 100 100" xml:space="preserve">
<g id="Ebene_1">
	<g>
		<path fill="#CACACA" d="M39.3,41.5c-15.9,0-28.8,9-28.8,20.1c0,4.3,1.9,8.2,5.2,11.5c-3,3.2-6.9,5.5-11.2,6.6c2.9,1.3,6,2,9.3,2
			c4,0,7.7-1,11-2.8c4.3,1.7,9.2,2.8,14.5,2.8c15.9,0,28.8-9,28.8-20.1C68.1,50.5,55.2,41.5,39.3,41.5z"/>
		<path fill="#30ADE7" d="M52.6,32.3c0,7.7,8.9,13.9,20,13.9c3.7,0,7.1-0.7,10.1-1.9c2.3,1.2,4.9,1.9,7.6,1.9c2.3,0,4.5-0.5,6.5-1.4
			c-3-0.8-5.7-2.4-7.8-4.6c2.3-2.3,3.6-5,3.6-7.9c0-7.7-8.9-13.9-20-13.9C61.5,18.4,52.6,24.6,52.6,32.3z"/>
	</g>
</g>
<g id="Ebene_2">
	<g id="Aufzählungszeichen_5_-_Nächst.">
	</g>
</g>
<g id="Ebene_4">
</g>
</svg>
